<svg width="64" height="64" viewBox="0 0 64 64" fill="none" xmlns="http://www.w3.org/2000/svg">
  <rect width="64" height="64" rx="8" fill="#181717"/>
  <path d="M32 16C23.16 16 16 23.16 16 32C16 38.84 20.16 44.56 26 47.32C26.8 47.56 27.2 47.12 27.2 46.76C27.2 46.44 27.16 45.6 27.16 44.64C22.4 45.6 21.6 41.28 21.6 41.28C20.96 39.52 19.92 39.08 19.92 39.08C18.4 37.8 20 37.8 20 37.8C21.52 37.88 22.36 39.72 22.36 39.72C23.84 42.24 26.08 41.52 27.28 41.16C27.44 40.56 27.88 40.2 28.32 40.08C25.6 39.72 22.72 38.64 22.72 32.8C22.72 31.36 23.28 30.2 24.16 29.28C23.92 28.92 23.36 27.64 24.4 25.2C24.4 25.2 25.6 24.8 27.2 26.6C28.32 26.28 29.52 26.16 30.72 26.16C31.92 26.16 33.12 26.28 34.24 26.6C35.84 24.8 37.04 25.2 37.04 25.2C38.08 27.64 37.52 28.92 37.28 29.28C38.16 30.2 38.72 31.36 38.72 32.8C38.72 38.68 35.8 39.72 33.04 40.08C33.52 40.28 34 40.84 34 41.76C34 43.2 33.96 44.28 33.96 44.64C33.96 47.12 34.32 47.52 35.12 47.32C40.96 44.56 48 38.84 48 32C48 23.16 40.84 16 32 16Z" fill="#FFFFFF"/>
</svg>
