<svg xmlns="http://www.w3.org/2000/svg" viewBox="0 0 24 24" fill="currentColor">
  <path d="M14.23 12.004a2.236 2.236 0 0 1-2.235 2.236 2.236 2.236 0 0 1-2.236-2.236 2.236 2.236 0 0 1 2.235-2.236 2.236 2.236 0 0 1 2.236 2.236zm2.648-10.69c-1.346 0-3.107.96-4.888 2.622-1.78-1.653-3.542-2.602-4.887-2.602-.41 0-.783.093-1.106.278-1.375.793-1.683 3.264-.973 6.365C1.98 8.917 0 10.42 0 12.004c0 1.59 1.99 3.097 5.043 4.03-.704 3.113-.39 5.588.988 6.38.32.187.69.275 1.102.275 1.345 0 3.107-.96 4.888-2.624 1.78 1.654 3.542 2.603 4.887 2.603.41 0 .783-.09 1.106-.275 1.374-.792 1.683-3.263.973-6.365C22.02 15.096 24 13.59 24 12.004c0-1.59-1.99-3.097-5.043-4.032.704-3.11.39-5.587-.988-6.38-.318-.184-.688-.277-1.092-.278zm-.005 1.09v.006c.225 0 .406.044.558.127.666.382.955 1.835.73 3.704-.054.46-.142.945-.25 1.44a23.476 23.476 0 0 0-2.713-1.498 23.8 23.8 0 0 0 1.12-2.94c.545-.066 1.035-.106 1.555-.84zm-9.77.02c.52.73 1.01.77 1.555.84.23.6.56 1.95 1.121 2.94a23.4 23.4 0 0 0-2.713 1.498 23.154 23.154 0 0 0-.25-1.44c-.23-1.869.064-3.322.73-3.704.147-.083.328-.127.558-.127v-.007zm4.882 3.05c.455.468.91.992 1.36 1.564-.44-.02-.89-.034-1.36-.034-.47 0-.92.014-1.36.034.44-.572.895-1.096 1.36-1.564zM12 8.1c.74 0 1.477.034 2.202.093.406.582.802 1.203 1.183 1.86.372.64.71 1.29 1.018 1.946-.308.655-.646 1.31-1.013 1.95-.38.66-.773 1.288-1.18 1.87a25.64 25.64 0 0 1-4.412.005 23.01 23.01 0 0 1-1.183-1.86c-.372-.64-.71-1.29-1.018-1.946a25.17 25.17 0 0 1 1.013-1.954c.38-.66-.773-1.286-1.18-1.868A25.45 25.45 0 0 1 12 8.098zm-3.635.254c-.24.377-.48.763-.704 1.16-.225.39-.435.782-.635 1.174-.265-.656-.49-1.31-.676-1.947.64-.15 1.315-.283 2.015-.386zm7.26 0c.695.103 1.365.23 2.006.387-.18.632-.405 1.282-.66 1.933a25.952 25.952 0 0 0-1.346-2.32zm3.063.675c.484.15.944.317 1.375.498 1.732.74 2.852 1.708 2.852 2.476-.005.768-1.125 1.74-2.857 2.475-.42.18-.88.342-1.355.493a22.87 22.87 0 0 0-1.1-2.997c.22-.38.44-.763.655-1.15.21-.38.415-.763.61-1.144.265.656.49 1.31.676 1.947zm-13.395.004c.18.632.405 1.282.66 1.933.2.38.405.763.61 1.144.21.38.435.763.655 1.15a22.918 22.918 0 0 0-1.1 2.997c-.484-.15-.944-.317-1.37-.498-1.732-.74-2.852-1.708-2.852-2.476 0-.768 1.12-1.74 2.852-2.475.42-.18.88-.342 1.355-.493zm11.678 4.28c.265.656.49 1.31.676 1.947-1.732.74-3.107 1.127-4.888 1.127-1.78 0-3.156-.387-4.888-1.127.18-.632.405-1.282.66-1.933.64.15 1.315.283 2.015.386.695-.103 1.365-.23 2.006-.387.64.15 1.315.283 2.015.386zm-9.33 2.1c.44.02.89.034 1.36.034.47 0 .92-.014 1.36-.034-.44.572-.895 1.096-1.36 1.564-.455-.468-.91-.992-1.36-1.564zm5.52 2.42c.74 0 1.477-.034 2.202-.093.406-.582.802-1.203 1.183-1.86.372-.64.71-1.29 1.018-1.946.308.655.646 1.31 1.013 1.95.38.66.773 1.288 1.18 1.87a25.64 25.64 0 0 1-4.412.005 23.01 23.01 0 0 1-1.183-1.86c-.372-.64-.71-1.29-1.018-1.946.308-.655.646-1.31 1.013-1.95.38-.66.773-1.288 1.18-1.87.725.059 1.462.093 2.202.093zm3.635.254c.24-.377.48-.763.704-1.16.225-.39.435-.782.635-1.174.265.656.49 1.31.676 1.947-.64.15-1.315.283-2.015.386zm-7.26 0c-.695-.103-1.365-.23-2.006-.387.18-.632.405-1.282.66-1.933.2-.38.405-.763.61-1.144.21-.38.435-.763.655-1.15a22.87 22.87 0 0 0 1.1 2.997c.42.18.88.342 1.355.493-.18-.632-.405-1.282-.66-1.933-.2-.38-.405-.763-.61-1.144-.21-.38-.435-.763-.655-1.15a22.918 22.918 0 0 0-1.1-2.997c.484.15.944.317 1.37.498 1.732.74 2.852 1.708 2.852 2.476 0 .768-1.12 1.74-2.852 2.475-.42.18-.88.342-1.355-.493z"/>
</svg>
